<svg width="139" height="63" viewBox="0 0 139 63" fill="none" xmlns="http://www.w3.org/2000/svg">
<path d="M40.8156 9.63845L37.7802 6.5143C37.7802 6.5143 35.5037 4.17225 33.2271 6.5143L29.0514 10.8088C29.6803 11.4543 29.6803 12.5053 29.0514 13.1522C28.4225 13.7978 27.4037 13.7978 26.7749 13.1522L9.65828 30.8232C7.38175 33.1653 9.65828 35.5087 9.65828 35.5087L12.695 38.6315C13.9528 37.3375 15.9904 37.3389 17.2481 38.6315C18.5059 39.924 18.5059 42.023 17.2481 43.317L20.2835 46.4397C22.56 48.7803 24.8365 46.4397 24.8365 46.4397C24.8365 46.4397 35.3625 35.5461 41.9531 28.7658C41.3243 28.1189 41.3243 27.0693 41.9531 26.4238C42.582 25.7783 43.6008 25.7783 44.2297 26.4238C46.1764 24.4225 47.7094 22.8439 48.404 22.1293C50.6805 19.7873 48.404 17.4453 48.404 17.4453L45.3686 14.3225C44.1109 15.6165 42.0733 15.615 40.8156 14.3225C39.5578 13.0286 39.5564 10.9324 40.8156 9.63845ZM40.4354 24.8639C39.808 25.5094 38.7892 25.5094 38.1589 24.8639C37.5314 24.2183 37.5314 23.1674 38.1589 22.5204C38.7892 21.8749 39.808 21.8749 40.4354 22.5204C41.0643 23.1674 41.0643 24.2169 40.4354 24.8639ZM36.6426 20.959C36.0124 21.6046 34.9936 21.6046 34.3661 20.959C33.7372 20.3135 33.7372 19.264 34.3661 18.617C34.9936 17.97 36.0124 17.97 36.6426 18.617C37.2701 19.264 37.2701 20.3121 36.6426 20.959ZM32.847 17.0556C32.2195 17.7026 31.1994 17.7026 30.5705 17.0556C29.943 16.4087 29.943 15.3591 30.5705 14.7136C31.1994 14.0666 32.2195 14.0666 32.847 14.7136C33.4745 15.3606 33.4745 16.4087 32.847 17.0556Z" fill="#EF6C00"/>
<path d="M34.33 10.7426L31.2946 7.61848C31.2946 7.61848 29.0181 5.27644 26.7416 7.61848L22.5672 11.9129C23.1947 12.5585 23.1947 13.6094 22.5672 14.2564C21.9383 14.902 20.9182 14.902 20.2893 14.2564L3.1755 31.9274C0.897571 34.2694 3.1755 36.6115 3.1755 36.6115L6.21087 39.7342C7.46862 38.4403 9.50618 38.4417 10.7639 39.7342C12.0217 41.0281 12.0217 43.1258 10.7639 44.4197L13.7993 47.5439C16.0758 49.8845 18.3524 47.5439 18.3524 47.5439C18.3524 47.5439 28.8769 36.6503 35.4676 29.87C34.8387 29.2245 34.8387 28.175 35.4676 27.528C36.0964 26.8824 37.1152 26.8824 37.7441 27.528C39.6908 25.5267 41.2239 23.9481 41.9184 23.2335C44.1963 20.8915 41.9184 18.5494 41.9184 18.5494L38.883 15.4267C37.6253 16.7207 35.5877 16.7192 34.33 15.4267C33.0722 14.1328 33.0722 12.0366 34.33 10.7426ZM33.9513 25.9681C33.3224 26.6136 32.3022 26.6136 31.6733 25.9681C31.0459 25.3225 31.0459 24.2716 31.6733 23.626C32.3022 22.979 33.3224 22.979 33.9513 23.626C34.5787 24.2716 34.5787 25.3211 33.9513 25.9681ZM30.1557 22.0632C29.5282 22.7088 28.5094 22.7088 27.8805 22.0632C27.2516 21.4177 27.2516 20.3682 27.8805 19.7212C28.5094 19.0756 29.5282 19.0756 30.1557 19.7212C30.7859 20.3682 30.7859 21.4163 30.1557 22.0632ZM26.3628 18.1598C25.734 18.8068 24.7138 18.8068 24.0863 18.1598C23.4574 17.5128 23.4574 16.4633 24.0863 15.8178C24.7138 15.1708 25.734 15.1708 26.3628 15.8178C26.9917 16.4633 26.9903 17.5128 26.3628 18.1598Z" fill="#FFA000"/>
<path d="M51.9609 46.8438C51.3281 47.6016 50.4336 48.1914 49.2773 48.6133C48.1211 49.0273 46.8398 49.2344 45.4336 49.2344C43.957 49.2344 42.6602 48.9141 41.543 48.2734C40.4336 47.625 39.5742 46.6875 38.9648 45.4609C38.3633 44.2344 38.0547 42.793 38.0391 41.1367V39.9766C38.0391 38.2734 38.3242 36.8008 38.8945 35.5586C39.4727 34.3086 40.3008 33.3555 41.3789 32.6992C42.4648 32.0352 43.7344 31.7031 45.1875 31.7031C47.2109 31.7031 48.793 32.1875 49.9336 33.1562C51.0742 34.1172 51.75 35.5195 51.9609 37.3633H48.5391C48.3828 36.3867 48.0352 35.6719 47.4961 35.2188C46.9648 34.7656 46.2305 34.5391 45.293 34.5391C44.0977 34.5391 43.1875 34.9883 42.5625 35.8867C41.9375 36.7852 41.6211 38.1211 41.6133 39.8945V40.9844C41.6133 42.7734 41.9531 44.125 42.6328 45.0391C43.3125 45.9531 44.3086 46.4102 45.6211 46.4102C46.9414 46.4102 47.8828 46.1289 48.4453 45.5664V42.625H45.2461V40.0352H51.9609V46.8438ZM59.2336 49.2344C57.3742 49.2344 55.8586 48.6641 54.6867 47.5234C53.5227 46.3828 52.9406 44.8633 52.9406 42.9648V42.6367C52.9406 41.3633 53.1867 40.2266 53.6789 39.2266C54.1711 38.2188 54.8664 37.4453 55.7648 36.9062C56.6711 36.3594 57.7023 36.0859 58.8586 36.0859C60.593 36.0859 61.9563 36.6328 62.9484 37.7266C63.9484 38.8203 64.4484 40.3711 64.4484 42.3789V43.7617H56.3742C56.4836 44.5898 56.8117 45.2539 57.3586 45.7539C57.9133 46.2539 58.6125 46.5039 59.4563 46.5039C60.7609 46.5039 61.7805 46.0312 62.5148 45.0859L64.1789 46.9492C63.6711 47.668 62.9836 48.2305 62.1164 48.6367C61.2492 49.0352 60.2883 49.2344 59.2336 49.2344ZM58.8469 38.8281C58.175 38.8281 57.6281 39.0547 57.2063 39.5078C56.7922 39.9609 56.5266 40.6094 56.4094 41.4531H61.1203V41.1836C61.1047 40.4336 60.9016 39.8555 60.5109 39.4492C60.1203 39.0352 59.5656 38.8281 58.8469 38.8281ZM69.2367 33.2031V36.3203H71.4047V38.8047H69.2367V45.1328C69.2367 45.6016 69.3266 45.9375 69.5063 46.1406C69.6859 46.3438 70.0297 46.4453 70.5375 46.4453C70.9125 46.4453 71.2445 46.418 71.5336 46.3633V48.9297C70.8695 49.1328 70.1859 49.2344 69.4828 49.2344C67.1078 49.2344 65.8969 48.0352 65.85 45.6367V38.8047H63.9984V36.3203H65.85V33.2031H69.2367ZM85.1578 34.7852H79.9313V49H76.4156V34.7852H71.2594V31.9375H85.1578V34.7852ZM89.325 49H85.9266V36.3203H89.325V49ZM85.7273 33.0391C85.7273 32.5312 85.8953 32.1133 86.2313 31.7852C86.575 31.457 87.0398 31.293 87.6258 31.293C88.2039 31.293 88.6648 31.457 89.0086 31.7852C89.3523 32.1133 89.5242 32.5312 89.5242 33.0391C89.5242 33.5547 89.3484 33.9766 88.9969 34.3047C88.6531 34.6328 88.1961 34.7969 87.6258 34.7969C87.0555 34.7969 86.5945 34.6328 86.243 34.3047C85.8992 33.9766 85.7273 33.5547 85.7273 33.0391ZM96.1992 46.5039C96.8242 46.5039 97.332 46.332 97.7227 45.9883C98.1133 45.6445 98.3164 45.1875 98.332 44.6172H101.508C101.5 45.4766 101.266 46.2656 100.805 46.9844C100.344 47.6953 99.7109 48.25 98.9062 48.6484C98.1094 49.0391 97.2266 49.2344 96.2578 49.2344C94.4453 49.2344 93.0156 48.6602 91.9688 47.5117C90.9219 46.3555 90.3984 44.7617 90.3984 42.7305V42.5078C90.3984 40.5547 90.918 38.9961 91.957 37.832C92.9961 36.668 94.4219 36.0859 96.2344 36.0859C97.8203 36.0859 99.0898 36.5391 100.043 37.4453C101.004 38.3438 101.492 39.543 101.508 41.043H98.332C98.3164 40.3867 98.1133 39.8555 97.7227 39.4492C97.332 39.0352 96.8164 38.8281 96.1758 38.8281C95.3867 38.8281 94.7891 39.1172 94.3828 39.6953C93.9844 40.2656 93.7852 41.1953 93.7852 42.4844V42.8359C93.7852 44.1406 93.9844 45.0781 94.3828 45.6484C94.7812 46.2188 95.3867 46.5039 96.1992 46.5039ZM106.847 43.9141L105.628 45.1328V49H102.241V31H105.628V40.9727L106.284 40.1289L109.53 36.3203H113.597L109.015 41.6055L113.995 49H110.105L106.847 43.9141ZM119.463 49.2344C117.604 49.2344 116.088 48.6641 114.916 47.5234C113.752 46.3828 113.17 44.8633 113.17 42.9648V42.6367C113.17 41.3633 113.416 40.2266 113.909 39.2266C114.401 38.2188 115.096 37.4453 115.995 36.9062C116.901 36.3594 117.932 36.0859 119.088 36.0859C120.823 36.0859 122.186 36.6328 123.178 37.7266C124.178 38.8203 124.678 40.3711 124.678 42.3789V43.7617H116.604C116.713 44.5898 117.041 45.2539 117.588 45.7539C118.143 46.2539 118.842 46.5039 119.686 46.5039C120.991 46.5039 122.01 46.0312 122.745 45.0859L124.409 46.9492C123.901 47.668 123.213 48.2305 122.346 48.6367C121.479 49.0352 120.518 49.2344 119.463 49.2344ZM119.077 38.8281C118.405 38.8281 117.858 39.0547 117.436 39.5078C117.022 39.9609 116.756 40.6094 116.639 41.4531H121.35V41.1836C121.334 40.4336 121.131 39.8555 120.741 39.4492C120.35 39.0352 119.795 38.8281 119.077 38.8281ZM129.466 33.2031V36.3203H131.634V38.8047H129.466V45.1328C129.466 45.6016 129.556 45.9375 129.736 46.1406C129.916 46.3438 130.259 46.4453 130.767 46.4453C131.142 46.4453 131.474 46.418 131.763 46.3633V48.9297C131.099 49.1328 130.416 49.2344 129.713 49.2344C127.338 49.2344 126.127 48.0352 126.08 45.6367V38.8047H124.228V36.3203H126.08V33.2031H129.466Z" fill="#FFA000"/>
</svg>
